<svg width="1000" height="1000" viewBox="0 0 1000 1000" fill="none" xmlns="http://www.w3.org/2000/svg">
<rect width="1000" height="1000" fill="white"/>
<path d="M166 698.928V511.403H205.648V666.239H236.32L240.349 672.74L248.406 670.726L255.894 666.239H286.041V698.928H166Z" fill="#FD6502"/>
<path d="M332.005 572.019L364.809 549.861L383.58 592.163H385.412L428.172 511.403H472.581L404.182 632.635V698.928H364.809V632.635L332.005 572.019Z" fill="#FD6502"/>
<path d="M628.125 522.666L638.197 528.709L646.187 531.731V558.284V698.928H611.942L530.358 580.901H528.985V698.928H489.337V511.403H524.132L605.075 629.339H606.723V511.403H623.089L628.125 522.666Z" fill="#FD6502"/>
<path d="M711.221 511.403L749.037 575.315H750.502L788.501 511.403H833.277L776.049 605.166L834.558 698.928H788.959L750.502 634.924H749.037L710.58 698.928H665.164L723.857 605.166L666.263 511.403H711.221Z" fill="#FD6502"/>
<path fill-rule="evenodd" clip-rule="evenodd" d="M711.219 294.532C708.931 297.024 706.473 301.833 705.76 305.213C704.675 310.356 703.075 311.736 695.974 313.641C691.305 314.896 685.35 317.92 682.74 320.361C678.862 323.987 677.659 324.29 676.166 322.005C675.161 320.466 674.863 317.396 675.502 315.18C676.14 312.964 677.19 307.179 677.834 302.324C678.759 295.346 678.421 293.692 676.213 294.43C672.047 295.818 666.26 306.824 665.552 314.699C664.716 324.018 662.712 327.09 659.312 324.269C655.353 320.984 632.053 327.42 624.855 333.785C620.576 337.571 620.083 338.578 623.024 337.52C633.805 333.64 650.362 329.761 651.458 330.855C652.132 331.531 651.224 336.374 649.437 341.618C645.729 352.506 645.281 359.705 648.204 361.512C649.381 362.239 650.219 360.168 650.219 356.53C650.219 347.254 654.836 338.135 663.248 330.792C667.376 327.192 671.116 324.245 671.564 324.245C672.011 324.245 672.377 326.511 672.377 329.281C672.377 332.051 672.804 334.317 673.326 334.317C673.848 334.317 678.153 331.606 682.895 328.29C687.635 324.976 694.353 321.711 697.822 321.036C703.776 319.878 704.07 320.108 703.105 325.154C702.207 329.855 701.389 330.345 696.297 329.225C691.827 328.244 690.507 328.679 690.507 331.137C690.507 332.885 691.333 334.317 692.34 334.317C695.416 334.317 714.37 350.116 716.848 354.748C718.127 357.139 719.894 364.888 720.772 371.969C721.894 381.02 724.194 387.649 728.517 394.297C734.416 403.364 734.534 403.96 731.374 408.819C729.561 411.607 726.728 414.888 725.081 416.113C723.306 417.432 722.625 419.753 723.411 421.8C725.514 427.283 721.261 433.026 715.113 433.004C712.106 432.994 704.884 430.77 699.068 428.061C693.253 425.353 688.493 423.472 688.493 423.881C688.493 426.753 709.173 439.067 713.997 439.067C722.68 439.067 728.781 433.935 728.781 426.628C728.781 422.65 730.925 418.021 734.824 413.579C742.101 405.293 742.423 400.201 736.142 392.738C732.546 388.463 731.132 383.733 730.228 372.956C728.781 355.692 725.59 349.156 713.609 338.914C704.499 331.126 704.415 330.941 707.322 325.115C711.181 317.378 718.544 290 716.765 290C716.004 290 713.51 292.041 711.219 294.532ZM575.369 322.18C572.424 323.069 567.438 325.204 564.289 326.922C551.8 333.737 511.157 344.281 477.15 349.526C455.323 352.894 425.075 366.23 406.614 380.623C392.294 391.787 392.735 391.664 378.691 388.423C360.68 384.265 350.07 390.721 350.07 405.837C350.07 412.69 349.139 415.251 346.041 416.909C342.314 418.903 342.012 418.44 342.012 410.736C342.012 399.826 347.223 389.184 354.945 384.329C359.842 381.251 363.061 380.72 370.214 381.805C384.355 383.955 396.095 383.775 398.494 381.376C401.526 378.345 366.777 371.655 357.265 373.437C342.503 376.207 331.39 393.846 332.169 413.261C332.597 423.856 332.093 425.317 325.467 432.649C313.564 445.826 307.283 458.645 295.68 493.457L284.601 526.695L274.754 527.825C268.008 528.6 263.79 530.339 261.354 533.344C259.378 535.784 253.645 554.975 248.45 576.532C243.309 597.87 236.406 624.09 233.112 634.799C227.228 653.924 227.18 654.443 230.397 664.008C234.337 675.724 236.603 678.784 241.343 678.784C247.775 678.784 263.282 662.219 271.517 646.553L279.458 631.445L279.512 639.891C279.541 644.536 276.392 658.021 272.514 669.86C268.637 681.697 265.464 693.376 265.464 695.812C265.464 700.35 273.034 709 277.004 709C281.396 709 295.535 690.33 298.865 680.135C304.046 664.268 312.881 645.487 318.84 637.675C326.386 627.78 342.846 617.634 357.185 614.322C385.681 607.739 391.984 600.604 409.602 555.803C420.486 528.125 427.224 515.702 436.591 506.047C445.386 496.982 445.164 496.146 434.925 499.716C424.944 503.194 408.869 529.722 397.338 561.738C390.419 580.955 381.712 594.988 373.624 599.963C370.087 602.139 358.283 605.984 351.142 607.272C322.462 612.441 312.517 624.678 298.815 662.668C289.949 687.248 287.097 693.642 282.87 698.424C276.94 705.13 274.134 703.984 272.675 694.262C271.584 686.984 272.448 683.294 277.986 671.6C284.266 658.337 284.611 656.403 284.818 633.298C285.022 610.71 285.427 608.299 290.467 599.699C295.201 591.62 297.795 589.645 310.756 584.249C318.929 580.846 327.347 578.062 329.464 578.062C336.218 578.062 358.687 565.523 367.12 557.048C371.827 552.316 380.3 539.065 387.173 525.688C393.718 512.946 400.511 501.418 402.269 500.068C404.094 498.668 404.461 497.586 403.128 497.55C399.757 497.457 391.607 507.737 381.982 524.219C366.304 551.063 352.052 562.837 327.911 568.897C320.709 570.704 308.629 575.031 301.067 578.512C285.999 585.449 282.806 589.807 272.267 617.807C261.497 646.42 245.745 672.472 240.991 669.533C239.897 668.857 239.538 666.905 240.195 665.194C240.852 663.484 239.887 660.426 238.052 658.4C233.64 653.523 235.326 643.082 243.275 626.1C246.601 618.99 251.234 605.046 253.571 595.115C265.569 544.087 269.678 534.285 278.135 536.495C280.369 537.081 284.712 536.257 287.788 534.668C292.618 532.17 294.526 528.147 301.824 505.062C319.13 450.34 329.851 435.592 365.681 417.237C377.037 411.419 386.329 407.189 386.329 407.838C386.329 408.484 384.353 411.685 381.94 414.951C369.485 431.797 390.731 416.167 417.112 389.073C435.727 369.956 454.179 361.774 495.038 354.51C507.739 352.252 523.914 348.954 530.981 347.181C540.06 344.905 544.457 344.587 545.972 346.102C547.487 347.617 549.88 346.76 554.129 343.183C569.577 330.186 594.574 322.47 609.876 325.982C621.993 328.76 622.414 327.46 610.688 323.464C600.658 320.047 584.387 319.455 575.369 322.18ZM658.276 369.449C642.725 377.557 641.109 380.548 641.462 400.552C641.649 411.053 642.987 420.786 644.824 425.007L647.876 432.017L648.039 418.518C648.285 398.398 651.758 384.91 658.262 378.808C662.922 374.437 669.811 364.318 667.915 364.628C667.599 364.679 663.262 366.848 658.276 369.449ZM627.482 407.622C628.832 425.452 627.706 430.742 620.83 438.912C616.326 444.267 614.199 445.145 605.218 445.366L594.822 445.622L607.426 447.26C614.721 448.209 624.456 451.283 630.538 454.558C641.577 460.505 645.513 465.368 661.6 492.943C666.747 501.766 670.184 506.154 669.493 503.025C668.377 497.963 668.782 497.486 674.184 497.486C684.951 497.486 698.565 474.441 698.565 456.216C698.565 449.371 688.521 432.319 682.145 428.338C680.097 427.057 678.421 424.416 678.421 422.466C678.421 418.15 676.922 418.071 667.722 421.915C659.769 425.238 654.248 431.809 654.248 437.949C654.248 441.775 654.407 441.751 657.404 437.472C660.087 433.64 674.114 425.859 675.453 427.458C675.697 427.75 679.637 432.349 684.21 437.679C691.758 446.48 692.522 448.382 692.522 458.408C692.522 476.27 684.125 489.029 670.363 492.079C665.857 493.078 664.716 491.954 659.521 481.376C651.447 464.939 643.444 455.902 631.686 449.941C623.221 445.654 622.103 444.46 624.664 442.458C635.878 433.685 639.673 411.685 632.111 399.282C629.915 395.683 627.722 392.736 627.238 392.736C626.753 392.736 626.863 399.434 627.482 407.622ZM381.293 397.612C381.293 399.653 364.63 408.704 360.708 408.795C357.769 408.863 359.406 403.368 363.87 398.177C367.132 394.385 381.293 393.926 381.293 397.612ZM535.717 427.861C534.132 432.242 529.585 437.389 523.318 441.892C510.253 451.279 506.133 457.856 506.552 468.669C506.951 479.007 507.473 478.808 476.978 479.924C461.288 480.498 453.424 481.765 446.518 484.835C436.2 489.42 430.6 494.907 439.812 491.404C442.763 490.282 457.545 489.001 472.661 488.558C487.778 488.114 504.479 486.654 509.775 485.312C518.105 483.203 519.898 483.318 523.028 486.15C525.02 487.953 527.766 489.428 529.132 489.428C530.497 489.428 542.634 492.601 556.105 496.478C582.3 504.02 598.325 505.322 604.789 500.435C608.377 497.719 609.288 498.025 615.46 504.006C621.356 509.721 622.053 511.45 620.997 517.706C620.069 523.196 620.667 525.663 623.554 528.276C627.593 531.932 649.395 535.744 657.457 534.202C663.756 532.998 672.611 522.597 670.973 518.327C669.964 515.7 669.251 516.03 667.11 520.118C663.641 526.739 654.302 530.484 645.819 528.657C634.883 526.3 627.776 521.848 628.455 517.779C628.791 515.764 625.218 509.242 620.512 503.283C615.806 497.324 610.623 490.637 608.994 488.421C606.318 484.785 606.024 484.74 605.966 487.967C605.831 495.497 588.326 497.629 569.577 492.397C563.52 490.707 551.311 487.877 542.447 486.11C528.973 483.425 525.258 481.787 519.785 476.121C509.872 465.857 510.865 460.555 525.206 447.196C537.028 436.181 543.178 425.899 539.905 422.626C538.978 421.699 537.093 424.054 535.717 427.861Z" fill="#0064AC"/>
<path d="M260.999 698.928V681.5L259.999 666.239H286.041L280.999 698.928H260.999Z" fill="#FD6502"/>
<path d="M339.499 586L357.499 576.5L370.499 562.5L383.58 592.163H385.412L428.172 511.403H472.581L404.182 632.635V698.928H364.809V632.635L339.499 586Z" fill="#FD6502"/>
<path d="M623.089 537.5L638.499 538.5L644.999 540.5L646.187 558.284V698.928H611.942L530.358 580.901H528.985V698.928H489.337V511.403H524.132L605.075 629.339H606.723V511.403L617.499 517L623.089 537.5Z" fill="#FD6502"/>
<path d="M711.221 511.403L749.037 575.315H750.502L788.501 511.403H833.277L776.049 605.166L834.558 698.928H788.959L750.502 634.924H749.037L710.58 698.928H665.164L723.857 605.166L671.999 516L711.221 511.403Z" fill="#FD6502"/>
</svg>
